<svg xmlns="http://www.w3.org/2000/svg" xmlns:xlink="http://www.w3.org/1999/xlink" width="2000" zoomAndPan="magnify" viewBox="0 0 1500 1499.999933" height="2000" preserveAspectRatio="xMidYMid meet" version="1.0"><defs><clipPath id="65a197315c"><path d="M 121.503906 1129.941406 L 993 1129.941406 L 993 1219.964844 L 121.503906 1219.964844 Z M 121.503906 1129.941406 " clip-rule="nonzero"/></clipPath><clipPath id="296517dddf"><path d="M 159.003906 1129.941406 L 955.449219 1129.941406 C 965.394531 1129.941406 974.933594 1133.894531 981.96875 1140.925781 C 989 1147.957031 992.949219 1157.496094 992.949219 1167.441406 L 992.949219 1182.464844 C 992.949219 1192.410156 989 1201.949219 981.96875 1208.980469 C 974.933594 1216.015625 965.394531 1219.964844 955.449219 1219.964844 L 159.003906 1219.964844 C 149.058594 1219.964844 139.519531 1216.015625 132.484375 1208.980469 C 125.453125 1201.949219 121.503906 1192.410156 121.503906 1182.464844 L 121.503906 1167.441406 C 121.503906 1157.496094 125.453125 1147.957031 132.484375 1140.925781 C 139.519531 1133.894531 149.058594 1129.941406 159.003906 1129.941406 Z M 159.003906 1129.941406 " clip-rule="nonzero"/></clipPath><clipPath id="9315593976"><path d="M 0.503906 0.941406 L 872 0.941406 L 872 90.964844 L 0.503906 90.964844 Z M 0.503906 0.941406 " clip-rule="nonzero"/></clipPath><clipPath id="55d63dbd1b"><path d="M 38.003906 0.941406 L 834.449219 0.941406 C 844.394531 0.941406 853.933594 4.894531 860.96875 11.925781 C 868 18.957031 871.949219 28.496094 871.949219 38.441406 L 871.949219 53.464844 C 871.949219 63.410156 868 72.949219 860.96875 79.980469 C 853.933594 87.015625 844.394531 90.964844 834.449219 90.964844 L 38.003906 90.964844 C 28.058594 90.964844 18.519531 87.015625 11.484375 79.980469 C 4.453125 72.949219 0.503906 63.410156 0.503906 53.464844 L 0.503906 38.441406 C 0.503906 28.496094 4.453125 18.957031 11.484375 11.925781 C 18.519531 4.894531 28.058594 0.941406 38.003906 0.941406 Z M 38.003906 0.941406 " clip-rule="nonzero"/></clipPath><clipPath id="5bb9117748"><rect x="0" width="872" y="0" height="91"/></clipPath><clipPath id="4d9e3b1059"><path d="M 913.078125 855.824219 L 1003.101562 855.824219 L 1003.101562 1220 L 913.078125 1220 Z M 913.078125 855.824219 " clip-rule="nonzero"/></clipPath><clipPath id="b65cd88682"><path d="M 1003.101562 893.324219 L 1003.101562 1182.453125 C 1003.101562 1192.398438 999.152344 1201.9375 992.117188 1208.96875 C 985.085938 1216.003906 975.546875 1219.953125 965.601562 1219.953125 L 950.578125 1219.953125 C 940.632812 1219.953125 931.09375 1216.003906 924.0625 1208.96875 C 917.027344 1201.9375 913.078125 1192.398438 913.078125 1182.453125 L 913.078125 893.324219 C 913.078125 883.378906 917.027344 873.839844 924.0625 866.804688 C 931.09375 859.773438 940.632812 855.824219 950.578125 855.824219 L 965.601562 855.824219 C 975.546875 855.824219 985.085938 859.773438 992.117188 866.804688 C 999.152344 873.839844 1003.101562 883.378906 1003.101562 893.324219 Z M 1003.101562 893.324219 " clip-rule="nonzero"/></clipPath><clipPath id="c04f1984ac"><path d="M 0.078125 0.824219 L 90.101562 0.824219 L 90.101562 365 L 0.078125 365 Z M 0.078125 0.824219 " clip-rule="nonzero"/></clipPath><clipPath id="6be5edfb88"><path d="M 90.101562 38.324219 L 90.101562 327.453125 C 90.101562 337.398438 86.152344 346.9375 79.117188 353.96875 C 72.085938 361.003906 62.546875 364.953125 52.601562 364.953125 L 37.578125 364.953125 C 27.632812 364.953125 18.09375 361.003906 11.0625 353.96875 C 4.027344 346.9375 0.078125 337.398438 0.078125 327.453125 L 0.078125 38.324219 C 0.078125 28.378906 4.027344 18.839844 11.0625 11.804688 C 18.09375 4.773438 27.632812 0.824219 37.578125 0.824219 L 52.601562 0.824219 C 62.546875 0.824219 72.085938 4.773438 79.117188 11.804688 C 86.152344 18.839844 90.101562 28.378906 90.101562 38.324219 Z M 90.101562 38.324219 " clip-rule="nonzero"/></clipPath><clipPath id="4cc2bf5de0"><rect x="0" width="91" y="0" height="365"/></clipPath><clipPath id="9a36a2dacb"><path d="M 110.242188 530.566406 L 200.265625 530.566406 L 200.265625 1220.164062 L 110.242188 1220.164062 Z M 110.242188 530.566406 " clip-rule="nonzero"/></clipPath><clipPath id="08575ec5f8"><path d="M 200.265625 568.066406 L 200.265625 1182.507812 C 200.265625 1192.453125 196.316406 1201.988281 189.28125 1209.023438 C 182.25 1216.054688 172.710938 1220.007812 162.765625 1220.007812 L 147.742188 1220.007812 C 137.796875 1220.007812 128.257812 1216.054688 121.226562 1209.023438 C 114.191406 1201.988281 110.242188 1192.453125 110.242188 1182.507812 L 110.242188 568.066406 C 110.242188 558.121094 114.191406 548.582031 121.226562 541.550781 C 128.257812 534.519531 137.796875 530.566406 147.742188 530.566406 L 162.765625 530.566406 C 172.710938 530.566406 182.25 534.519531 189.28125 541.550781 C 196.316406 548.582031 200.265625 558.121094 200.265625 568.066406 Z M 200.265625 568.066406 " clip-rule="nonzero"/></clipPath><clipPath id="fe02d72ee7"><path d="M 0.242188 0.566406 L 90.265625 0.566406 L 90.265625 690.039062 L 0.242188 690.039062 Z M 0.242188 0.566406 " clip-rule="nonzero"/></clipPath><clipPath id="1d415a873a"><path d="M 90.265625 38.066406 L 90.265625 652.507812 C 90.265625 662.453125 86.316406 671.988281 79.28125 679.023438 C 72.25 686.054688 62.710938 690.007812 52.765625 690.007812 L 37.742188 690.007812 C 27.796875 690.007812 18.257812 686.054688 11.226562 679.023438 C 4.191406 671.988281 0.242188 662.453125 0.242188 652.507812 L 0.242188 38.066406 C 0.242188 28.121094 4.191406 18.582031 11.226562 11.550781 C 18.257812 4.519531 27.796875 0.566406 37.742188 0.566406 L 52.765625 0.566406 C 62.710938 0.566406 72.25 4.519531 79.28125 11.550781 C 86.316406 18.582031 90.265625 28.121094 90.265625 38.066406 Z M 90.265625 38.066406 " clip-rule="nonzero"/></clipPath><clipPath id="7715eb97ca"><rect x="0" width="91" y="0" height="691"/></clipPath><clipPath id="9a64606738"><path d="M 114 174 L 605 174 L 605 613 L 114 613 Z M 114 174 " clip-rule="nonzero"/></clipPath><clipPath id="733b881956"><path d="M 619.960938 227.535156 L 157.933594 627.621094 L 99.003906 559.570312 L 561.027344 159.480469 Z M 619.960938 227.535156 " clip-rule="nonzero"/></clipPath><clipPath id="8880da2342"><path d="M 591.609375 252.082031 L 186.433594 602.945312 C 178.914062 609.453125 169.117188 612.710938 159.199219 612 C 149.277344 611.285156 140.046875 606.664062 133.539062 599.144531 L 123.703125 587.785156 C 117.191406 580.269531 113.933594 570.472656 114.648438 560.550781 C 115.359375 550.632812 119.984375 541.402344 127.503906 534.890625 L 532.679688 184.027344 C 540.199219 177.519531 549.996094 174.261719 559.914062 174.972656 C 569.835938 175.6875 579.066406 180.3125 585.578125 187.828125 L 595.410156 199.1875 C 601.921875 206.703125 605.179688 216.5 604.464844 226.421875 C 603.753906 236.34375 599.128906 245.574219 591.609375 252.082031 Z M 591.609375 252.082031 " clip-rule="nonzero"/></clipPath><clipPath id="0f9f0ad952"><path d="M 0 0.121094 L 491 0.121094 L 491 438.839844 L 0 438.839844 Z M 0 0.121094 " clip-rule="nonzero"/></clipPath><clipPath id="5fd46fdb41"><path d="M 505.960938 53.535156 L 43.933594 453.621094 L -14.996094 385.570312 L 447.027344 -14.519531 Z M 505.960938 53.535156 " clip-rule="nonzero"/></clipPath><clipPath id="be6a1567e2"><path d="M 477.609375 78.082031 L 72.433594 428.945312 C 64.914062 435.453125 55.117188 438.710938 45.199219 438 C 35.277344 437.285156 26.046875 432.664062 19.539062 425.144531 L 9.703125 413.785156 C 3.191406 406.269531 -0.0664062 396.472656 0.648438 386.550781 C 1.359375 376.632812 5.984375 367.402344 13.503906 360.890625 L 418.679688 10.027344 C 426.199219 3.519531 435.996094 0.261719 445.914062 0.972656 C 455.835938 1.6875 465.066406 6.3125 471.578125 13.828125 L 481.410156 25.1875 C 487.921875 32.703125 491.179688 42.5 490.464844 52.421875 C 489.753906 62.34375 485.128906 71.574219 477.609375 78.082031 Z M 477.609375 78.082031 " clip-rule="nonzero"/></clipPath><clipPath id="f0f130d694"><rect x="0" width="491" y="0" height="439"/></clipPath><clipPath id="c49a169ed0"><path d="M 510 174 L 890 174 L 890 516 L 510 516 Z M 510 174 " clip-rule="nonzero"/></clipPath><clipPath id="48c7104f5f"><path d="M 554.339844 159.515625 L 905.507812 462.535156 L 846.699219 530.691406 L 495.527344 227.675781 Z M 554.339844 159.515625 " clip-rule="nonzero"/></clipPath><clipPath id="6dd1ea8855"><path d="M 582.730469 184.015625 L 876.976562 437.914062 C 884.503906 444.414062 889.144531 453.632812 889.875 463.554688 C 890.605469 473.472656 887.367188 483.273438 880.867188 490.804688 L 871.054688 502.179688 C 864.554688 509.710938 855.332031 514.347656 845.414062 515.078125 C 835.496094 515.808594 825.695312 512.570312 818.164062 506.070312 L 523.917969 252.171875 C 516.386719 245.675781 511.746094 236.453125 511.019531 226.535156 C 510.289062 216.617188 513.527344 206.8125 520.023438 199.285156 L 529.839844 187.910156 C 536.335938 180.378906 545.558594 175.738281 555.480469 175.007812 C 565.398438 174.277344 575.199219 177.519531 582.730469 184.015625 Z M 582.730469 184.015625 " clip-rule="nonzero"/></clipPath><clipPath id="e58097cf8e"><path d="M 0.199219 0.121094 L 380 0.121094 L 380 341.878906 L 0.199219 341.878906 Z M 0.199219 0.121094 " clip-rule="nonzero"/></clipPath><clipPath id="10b1590bd2"><path d="M 44.339844 -14.484375 L 395.507812 288.535156 L 336.699219 356.691406 L -14.472656 53.675781 Z M 44.339844 -14.484375 " clip-rule="nonzero"/></clipPath><clipPath id="55751c7496"><path d="M 72.730469 10.015625 L 366.976562 263.914062 C 374.503906 270.414062 379.144531 279.632812 379.875 289.554688 C 380.605469 299.472656 377.367188 309.273438 370.867188 316.804688 L 361.054688 328.179688 C 354.554688 335.710938 345.332031 340.347656 335.414062 341.078125 C 325.496094 341.808594 315.695312 338.570312 308.164062 332.070312 L 13.917969 78.171875 C 6.386719 71.675781 1.746094 62.453125 1.019531 52.535156 C 0.289062 42.617188 3.527344 32.8125 10.023438 25.285156 L 19.839844 13.910156 C 26.335938 6.378906 35.558594 1.738281 45.480469 1.007812 C 55.398438 0.277344 65.199219 3.519531 72.730469 10.015625 Z M 72.730469 10.015625 " clip-rule="nonzero"/></clipPath><clipPath id="465f06395b"><rect x="0" width="380" y="0" height="342"/></clipPath><clipPath id="85ef4922f6"><path d="M 16 15 L 605 15 L 605 538 L 16 538 Z M 16 15 " clip-rule="nonzero"/></clipPath><clipPath id="a30416fb38"><path d="M 620.015625 68.476562 L 59.894531 553.507812 L 0.964844 485.453125 L 561.082031 0.421875 Z M 620.015625 68.476562 " clip-rule="nonzero"/></clipPath><clipPath id="dbb55d281e"><path d="M 591.664062 93.023438 L 88.386719 528.835938 C 80.867188 535.347656 71.070312 538.605469 61.148438 537.890625 C 51.230469 537.179688 42 532.554688 35.488281 525.035156 L 25.652344 513.679688 C 19.144531 506.160156 15.886719 496.363281 16.597656 486.445312 C 17.3125 476.523438 21.933594 467.292969 29.453125 460.78125 L 532.734375 24.96875 C 540.253906 18.457031 550.050781 15.203125 559.96875 15.914062 C 569.890625 16.628906 579.121094 21.25 585.632812 28.769531 L 595.464844 40.128906 C 601.976562 47.644531 605.234375 57.441406 604.519531 67.363281 C 603.808594 77.28125 599.183594 86.511719 591.664062 93.023438 Z M 591.664062 93.023438 " clip-rule="nonzero"/></clipPath><clipPath id="bb21f6bff4"><path d="M 0 0 L 589 0 L 589 523 L 0 523 Z M 0 0 " clip-rule="nonzero"/></clipPath><clipPath id="c831436a2c"><path d="M 604.015625 53.476562 L 43.894531 538.507812 L -15.035156 470.453125 L 545.082031 -14.578125 Z M 604.015625 53.476562 " clip-rule="nonzero"/></clipPath><clipPath id="995da702c9"><path d="M 575.664062 78.023438 L 72.386719 513.835938 C 64.867188 520.347656 55.070312 523.605469 45.148438 522.890625 C 35.230469 522.179688 26 517.554688 19.488281 510.035156 L 9.652344 498.679688 C 3.144531 491.160156 -0.113281 481.363281 0.597656 471.445312 C 1.3125 461.523438 5.933594 452.292969 13.453125 445.78125 L 516.734375 9.96875 C 524.253906 3.457031 534.050781 0.203125 543.96875 0.914062 C 553.890625 1.628906 563.121094 6.25 569.632812 13.769531 L 579.464844 25.128906 C 585.976562 32.644531 589.234375 42.441406 588.519531 52.363281 C 587.808594 62.28125 583.183594 71.511719 575.664062 78.023438 Z M 575.664062 78.023438 " clip-rule="nonzero"/></clipPath><clipPath id="1519ffd9cc"><rect x="0" width="589" y="0" height="523"/></clipPath><clipPath id="6660f71cae"><path d="M 510 15 L 978 15 L 978 432 L 510 432 Z M 510 15 " clip-rule="nonzero"/></clipPath><clipPath id="36ac4acee8"><path d="M 554.34375 0.464844 L 993.105469 379.066406 L 934.296875 447.222656 L 495.53125 68.625 Z M 554.34375 0.464844 " clip-rule="nonzero"/></clipPath><clipPath id="5b7e67be04"><path d="M 582.734375 24.964844 L 964.535156 354.414062 C 972.066406 360.910156 976.707031 370.132812 977.4375 380.050781 C 978.167969 389.96875 974.925781 399.773438 968.429688 407.304688 L 958.613281 418.675781 C 952.117188 426.207031 942.894531 430.847656 932.976562 431.578125 C 923.054688 432.308594 913.253906 429.066406 905.722656 422.570312 L 523.921875 93.121094 C 516.394531 86.625 511.753906 77.402344 511.023438 67.484375 C 510.292969 57.5625 513.53125 47.761719 520.03125 40.230469 L 529.84375 28.855469 C 536.34375 21.328125 545.5625 16.6875 555.484375 15.957031 C 565.402344 15.226562 575.203125 18.464844 582.734375 24.964844 Z M 582.734375 24.964844 " clip-rule="nonzero"/></clipPath><clipPath id="a48e6679b0"><path d="M 0.199219 0 L 468 0 L 468 417 L 0.199219 417 Z M 0.199219 0 " clip-rule="nonzero"/></clipPath><clipPath id="66b29a69b5"><path d="M 44.34375 -14.535156 L 483.105469 364.066406 L 424.296875 432.222656 L -14.46875 53.625 Z M 44.34375 -14.535156 " clip-rule="nonzero"/></clipPath><clipPath id="220f169962"><path d="M 72.734375 9.964844 L 454.535156 339.414062 C 462.066406 345.910156 466.707031 355.132812 467.4375 365.050781 C 468.167969 374.96875 464.925781 384.773438 458.429688 392.304688 L 448.613281 403.675781 C 442.117188 411.207031 432.894531 415.847656 422.976562 416.578125 C 413.054688 417.308594 403.253906 414.066406 395.722656 407.570312 L 13.921875 78.121094 C 6.394531 71.625 1.753906 62.402344 1.023438 52.484375 C 0.292969 42.5625 3.53125 32.761719 10.03125 25.230469 L 19.84375 13.855469 C 26.34375 6.328125 35.5625 1.6875 45.484375 0.957031 C 55.402344 0.226562 65.203125 3.464844 72.734375 9.964844 Z M 72.734375 9.964844 " clip-rule="nonzero"/></clipPath><clipPath id="edfbe99ed9"><rect x="0" width="468" y="0" height="417"/></clipPath><clipPath id="0792b3c2d7"><path d="M 326 792 L 597 792 L 597 1063 L 326 1063 Z M 326 792 " clip-rule="nonzero"/></clipPath><clipPath id="042e045907"><path d="M 386.777344 777.246094 L 611.871094 1002.34375 L 535.648438 1078.566406 L 310.554688 853.46875 Z M 386.777344 777.246094 " clip-rule="nonzero"/></clipPath><clipPath id="cec35f0bbe"><path d="M 413.292969 803.761719 L 585.289062 975.757812 C 592.320312 982.792969 596.269531 992.328125 596.269531 1002.273438 C 596.269531 1012.222656 592.320312 1021.757812 585.289062 1028.792969 L 562.097656 1051.980469 C 555.066406 1059.015625 545.527344 1062.964844 535.582031 1062.964844 C 525.636719 1062.964844 516.097656 1059.015625 509.066406 1051.980469 L 337.070312 879.988281 C 330.035156 872.953125 326.085938 863.414062 326.085938 853.46875 C 326.085938 843.523438 330.035156 833.988281 337.070312 826.953125 L 360.257812 803.761719 C 367.292969 796.730469 376.832031 792.78125 386.777344 792.78125 C 396.722656 792.78125 406.261719 796.730469 413.292969 803.761719 Z M 413.292969 803.761719 " clip-rule="nonzero"/></clipPath><clipPath id="149bc30798"><path d="M 0 0.601562 L 270.359375 0.601562 L 270.359375 271 L 0 271 Z M 0 0.601562 " clip-rule="nonzero"/></clipPath><clipPath id="c954911931"><path d="M 60.777344 -14.753906 L 285.871094 210.34375 L 209.648438 286.566406 L -15.445312 61.46875 Z M 60.777344 -14.753906 " clip-rule="nonzero"/></clipPath><clipPath id="1063270355"><path d="M 87.292969 11.761719 L 259.289062 183.757812 C 266.320312 190.792969 270.269531 200.328125 270.269531 210.273438 C 270.269531 220.222656 266.320312 229.757812 259.289062 236.792969 L 236.097656 259.980469 C 229.066406 267.015625 219.527344 270.964844 209.582031 270.964844 C 199.636719 270.964844 190.097656 267.015625 183.066406 259.980469 L 11.070312 87.988281 C 4.035156 80.953125 0.0859375 71.414062 0.0859375 61.46875 C 0.0859375 51.523438 4.035156 41.988281 11.070312 34.953125 L 34.257812 11.761719 C 41.292969 4.730469 50.832031 0.78125 60.777344 0.78125 C 70.722656 0.78125 80.261719 4.730469 87.292969 11.761719 Z M 87.292969 11.761719 " clip-rule="nonzero"/></clipPath><clipPath id="44a29499af"><rect x="0" width="271" y="0" height="271"/></clipPath><clipPath id="8d4f5cf528"><path d="M 482 410 L 1122 410 L 1122 1050 L 482 1050 Z M 482 410 " clip-rule="nonzero"/></clipPath><clipPath id="96fbe50795"><path d="M 1136.742188 476.300781 L 547.652344 1065.390625 L 466.703125 984.445312 L 1055.792969 395.355469 Z M 1136.742188 476.300781 " clip-rule="nonzero"/></clipPath><clipPath id="4a7df3201f"><path d="M 1110.226562 502.820312 L 574.480469 1038.5625 C 567.449219 1045.59375 557.910156 1049.546875 547.964844 1049.546875 C 538.019531 1049.546875 528.480469 1045.59375 521.449219 1038.5625 L 493.535156 1010.648438 C 486.5 1003.613281 482.550781 994.074219 482.550781 984.128906 C 482.550781 974.183594 486.5 964.648438 493.535156 957.613281 L 1029.277344 421.871094 C 1036.308594 414.839844 1045.847656 410.886719 1055.792969 410.886719 C 1065.738281 410.886719 1075.277344 414.839844 1082.308594 421.871094 L 1110.226562 449.785156 C 1117.257812 456.820312 1121.207031 466.355469 1121.207031 476.300781 C 1121.207031 486.25 1117.257812 495.785156 1110.226562 502.820312 Z M 1110.226562 502.820312 " clip-rule="nonzero"/></clipPath><clipPath id="0cab448897"><path d="M 0.359375 0.761719 L 639.238281 0.761719 L 639.238281 639.640625 L 0.359375 639.640625 Z M 0.359375 0.761719 " clip-rule="nonzero"/></clipPath><clipPath id="1fa959cdbd"><path d="M 654.742188 66.300781 L 65.652344 655.390625 L -15.296875 574.445312 L 573.792969 -14.644531 Z M 654.742188 66.300781 " clip-rule="nonzero"/></clipPath><clipPath id="8259ee44e9"><path d="M 628.226562 92.820312 L 92.480469 628.5625 C 85.449219 635.59375 75.910156 639.546875 65.964844 639.546875 C 56.019531 639.546875 46.480469 635.59375 39.449219 628.5625 L 11.535156 600.648438 C 4.5 593.613281 0.550781 584.074219 0.550781 574.128906 C 0.550781 564.183594 4.5 554.648438 11.535156 547.613281 L 547.277344 11.871094 C 554.308594 4.839844 563.847656 0.886719 573.792969 0.886719 C 583.738281 0.886719 593.277344 4.839844 600.308594 11.871094 L 628.226562 39.785156 C 635.257812 46.820312 639.207031 56.355469 639.207031 66.300781 C 639.207031 76.25 635.257812 85.785156 628.226562 92.820312 Z M 628.226562 92.820312 " clip-rule="nonzero"/></clipPath><clipPath id="b247807064"><rect x="0" width="640" y="0" height="640"/></clipPath><clipPath id="34afb12b0e"><path d="M 757.6875 104.183594 L 894.539062 104.183594 L 894.539062 187.398438 L 757.6875 187.398438 Z M 757.6875 104.183594 " clip-rule="nonzero"/></clipPath><clipPath id="56bc9c6a9d"><path d="M 894.539062 141.683594 L 894.539062 149.898438 C 894.539062 170.609375 877.746094 187.398438 857.039062 187.398438 L 795.226562 187.398438 C 774.515625 187.398438 757.726562 170.609375 757.726562 149.898438 L 757.726562 141.683594 C 757.726562 120.972656 774.515625 104.183594 795.226562 104.183594 L 857.039062 104.183594 C 877.746094 104.183594 894.539062 120.972656 894.539062 141.683594 Z M 894.539062 141.683594 " clip-rule="nonzero"/></clipPath><clipPath id="9306d7145d"><path d="M 0.6875 0.183594 L 137.539062 0.183594 L 137.539062 83.398438 L 0.6875 83.398438 Z M 0.6875 0.183594 " clip-rule="nonzero"/></clipPath><clipPath id="b6e19bd2fd"><path d="M 137.539062 37.683594 L 137.539062 45.898438 C 137.539062 66.609375 120.746094 83.398438 100.039062 83.398438 L 38.226562 83.398438 C 17.515625 83.398438 0.726562 66.609375 0.726562 45.898438 L 0.726562 37.683594 C 0.726562 16.972656 17.515625 0.183594 38.226562 0.183594 L 100.039062 0.183594 C 120.746094 0.183594 137.539062 16.972656 137.539062 37.683594 Z M 137.539062 37.683594 " clip-rule="nonzero"/></clipPath><clipPath id="18810fe888"><rect x="0" width="138" y="0" height="84"/></clipPath><clipPath id="990f59c05a"><path d="M 761 110 L 890 110 L 890 233 L 761 233 Z M 761 110 " clip-rule="nonzero"/></clipPath><clipPath id="d6e59bd808"><path d="M 905.289062 183.035156 L 851.566406 247.335938 L 746.570312 159.621094 L 800.292969 95.316406 Z M 905.289062 183.035156 " clip-rule="nonzero"/></clipPath><clipPath id="25c699a086"><path d="M 881.246094 211.8125 L 875.609375 218.558594 C 862.332031 234.453125 838.683594 236.574219 822.789062 223.296875 L 775.351562 183.667969 C 759.457031 170.386719 757.335938 146.738281 770.617188 130.84375 L 776.253906 124.097656 C 789.53125 108.203125 813.179688 106.085938 829.074219 119.363281 L 876.507812 158.992188 C 892.402344 172.269531 894.523438 195.917969 881.246094 211.8125 Z M 881.246094 211.8125 " clip-rule="nonzero"/></clipPath><clipPath id="ec764f1863"><path d="M 0 0 L 129 0 L 129 123 L 0 123 Z M 0 0 " clip-rule="nonzero"/></clipPath><clipPath id="2223d954f0"><path d="M 144.289062 73.035156 L 90.566406 137.335938 L -14.429688 49.621094 L 39.292969 -14.683594 Z M 144.289062 73.035156 " clip-rule="nonzero"/></clipPath><clipPath id="8ad7582389"><path d="M 120.246094 101.8125 L 114.609375 108.558594 C 101.332031 124.453125 77.683594 126.574219 61.789062 113.296875 L 14.351562 73.667969 C -1.542969 60.386719 -3.664062 36.738281 9.617188 20.84375 L 15.253906 14.097656 C 28.53125 -1.796875 52.179688 -3.914062 68.074219 9.363281 L 115.507812 48.992188 C 131.402344 62.269531 133.523438 85.917969 120.246094 101.8125 Z M 120.246094 101.8125 " clip-rule="nonzero"/></clipPath><clipPath id="8db94c5586"><rect x="0" width="129" y="0" height="123"/></clipPath><clipPath id="e7b2235525"><path d="M 810 104 L 897 104 L 897 234 L 810 234 Z M 810 104 " clip-rule="nonzero"/></clipPath><clipPath id="8b872d4cc7"><path d="M 893.09375 235.136719 L 809.371094 231.703125 L 814.671875 102.523438 L 898.394531 105.957031 Z M 893.09375 235.136719 " clip-rule="nonzero"/></clipPath><clipPath id="61f4cbbbb3"><path d="M 855.625 233.597656 L 846.839844 233.238281 C 826.148438 232.390625 810.0625 214.925781 810.910156 194.234375 L 813.132812 140.078125 C 813.980469 119.382812 831.445312 103.296875 852.136719 104.144531 L 860.921875 104.507812 C 881.613281 105.355469 897.703125 122.820312 896.851562 143.511719 L 894.628906 197.667969 C 893.78125 218.359375 876.316406 234.449219 855.625 233.597656 Z M 855.625 233.597656 " clip-rule="nonzero"/></clipPath><clipPath id="1267ae15f5"><path d="M 0 0 L 87 0 L 87 130 L 0 130 Z M 0 0 " clip-rule="nonzero"/></clipPath><clipPath id="4ba865ed97"><path d="M 83.09375 131.136719 L -0.628906 127.703125 L 4.671875 -1.476562 L 88.394531 1.957031 Z M 83.09375 131.136719 " clip-rule="nonzero"/></clipPath><clipPath id="2e44aab18e"><path d="M 45.625 129.597656 L 36.839844 129.238281 C 16.148438 128.390625 0.0625 110.925781 0.910156 90.234375 L 3.132812 36.078125 C 3.980469 15.382812 21.445312 -0.703125 42.136719 0.144531 L 50.921875 0.507812 C 71.613281 1.355469 87.703125 18.820312 86.851562 39.511719 L 84.628906 93.667969 C 83.78125 114.359375 66.316406 130.449219 45.625 129.597656 Z M 45.625 129.597656 " clip-rule="nonzero"/></clipPath><clipPath id="0d70ab1121"><rect x="0" width="87" y="0" height="130"/></clipPath><clipPath id="4b87498629"><rect x="0" width="1137" y="0" height="1221"/></clipPath></defs><g transform="matrix(1, 0, 0, 1, 181, 87)"><g clip-path="url(#4b87498629)"><g clip-path="url(#0792b3c2d7)"><g clip-path="url(#042e045907)"><g clip-path="url(#cec35f0bbe)"><g transform="matrix(1, 0, 0, 1, 326, 792)"><g clip-path="url(#44a29499af)"><g clip-path="url(#149bc30798)"><g clip-path="url(#c954911931)"><g clip-path="url(#1063270355)"><path fill="#0097b2" d="M 60.777344 -14.753906 L 285.871094 210.34375 L 209.648438 286.566406 L -15.445312 61.46875 Z M 60.777344 -14.753906 " fill-opacity="1" fill-rule="nonzero"/></g></g></g></g></g></g></g></g><g clip-path="url(#8d4f5cf528)"><g clip-path="url(#96fbe50795)"><g clip-path="url(#4a7df3201f)"><g transform="matrix(1, 0, 0, 1, 482, 410)"><g clip-path="url(#b247807064)"><g clip-path="url(#0cab448897)"><g clip-path="url(#1fa959cdbd)"><g clip-path="url(#8259ee44e9)"><path fill="#0097b2" d="M 654.742188 66.300781 L 65.96875 655.074219 L -14.980469 574.128906 L 573.792969 -14.644531 Z M 654.742188 66.300781 " fill-opacity="1" fill-rule="nonzero"/></g></g></g></g></g></g></g></g></g></g></svg>